<?xml version="1.0" encoding="UTF-8"?>
<svg data-name="Ebene 1" viewBox="0 0 512 512" xmlns="http://www.w3.org/2000/svg" xmlns:xlink="http://www.w3.org/1999/xlink">
<defs>
<style>.cls-1{fill:url(#a);}.cls-2{fill:url(#f);}.cls-3{fill:url(#e);}.cls-4{fill:url(#d);}.cls-5{fill:url(#c);}.cls-6{fill:url(#b);}</style>
<linearGradient id="a" x1="192.91" x2="195.08" y1="373.75" y2="138.64" gradientUnits="userSpaceOnUse">
<stop stop-color="#006eb7" offset="0"/>
<stop stop-color="#0363aa" offset=".07"/>
<stop stop-color="#055a9f" offset=".17"/>
<stop stop-color="#06579b" offset=".28"/>
<stop stop-color="#2b3079" offset=".67"/>
<stop stop-color="#242657" offset=".89"/>
<stop stop-color="#1b1a36" offset="1"/>
</linearGradient>
<linearGradient id="f" x1="265.26" x2="172.52" y1="341.07" y2="194.66" xlink:href="#a"/>
<linearGradient id="e" x1="241.78" x2="277.57" y1="323.54" y2="246.54" xlink:href="#a"/>
<linearGradient id="d" x1="303.52" x2="215.07" y1="354.64" y2="167.43" xlink:href="#a"/>
<linearGradient id="c" x1="415.02" x2="222.66" y1="340.73" y2="270.74" xlink:href="#a"/>
<linearGradient id="b" x1="313.87" x2="269.21" y1="374.44" y2="156.31" xlink:href="#a"/>
</defs>
<path class="cls-1" d="M228,372.32a65.86,65.86,0,0,1-71.54-91.92l.81-1.71L168,256l10.9-23,31.24-65.87a1.83,1.83,0,0,0,.14-.28c0-.1.1-.21.14-.31a65.47,65.47,0,0,0,6.22-27.9c37.31,17.9,17.56,78-4.33,109.79S138.49,372.32,228,372.32Z"/>
<path class="cls-2" d="m282.34 307.5a65.84 65.84 0 0 1-54.34 64.82c-89.53 0-37.57-92.08-15.67-123.86s41.64-91.89 4.33-109.79a63.61 63.61 0 0 1 30 84.63l-2.6 5.49-1 2.16-6.55 13.81-18.59 39.24-9.36 19.75a8.81 8.81 0 0 0 3.66 11.44h0.09l0.2 0.11c39.75 22.48 52.27-7.8 69.83-7.8z"/>
<path class="cls-3" d="m282.34 274.9v32.6c-17.56 0-30.08 30.28-69.83 7.82l0.22 0.11a8.79 8.79 0 0 0 11.69-4.15 62.07 62.07 0 0 1 5.48-9.38 63.5 63.5 0 0 1 44.1-26.49 59.39 59.39 0 0 1 8.34-0.51z"/>
<path class="cls-4" d="m311.11 303.85c0 50.17-38.54 65.38-38.54 65.38a84.14 84.14 0 0 0 16.65-20.9 83.58 83.58 0 0 0 4.52-72.33h0.15l-1.36-2.86-0.67-1.42-0.2-0.41-13-27.51-11.76-24.77s44.21 50.5 44.21 84.82z"/>
<path class="cls-5" d="m361.34 307.5a65.65 65.65 0 0 1-17.27 44.5 67.78 67.78 0 0 1-10 8.88 66 66 0 0 1-61.54 8.39c50.2 0 76.89-45.61 64.52-74.12-13.4-30.87-23-76-70.22-76a65.91 65.91 0 0 1 75.94 34.53l1 2 10.94 23.05 0.81 1.71a65.58 65.58 0 0 1 5.82 27.06z"/>
<path class="cls-6" d="m272.57 369.23s38.54-15.21 38.54-65.38c0-34.32-44.24-84.78-44.24-84.78 47.23 0 56.82 45.17 70.22 76 12.37 28.55-14.32 74.16-64.52 74.16z"/>
</svg>
